<svg id="SvgjsSvg1064" width="476" height="505" xmlns="http://www.w3.org/2000/svg" version="1.1" xmlns:xlink="http://www.w3.org/1999/xlink" xmlns:svgjs="http://svgjs.com/svgjs"><defs id="SvgjsDefs1065"><marker id="SvgjsMarker1104" markerWidth="16" markerHeight="12" refX="16" refY="6" viewBox="0 0 16 12" orient="auto" markerUnits="userSpaceOnUse" stroke-dasharray="0,0"><path id="SvgjsPath1105" d="M0,2 L14,6 L0,11 L0,2" fill="#323232" stroke="#323232" stroke-width="2"></path></marker><marker id="SvgjsMarker1108" markerWidth="16" markerHeight="12" refX="16" refY="6" viewBox="0 0 16 12" orient="auto" markerUnits="userSpaceOnUse" stroke-dasharray="0,0"><path id="SvgjsPath1109" d="M0,2 L14,6 L0,11 L0,2" fill="#323232" stroke="#323232" stroke-width="2"></path></marker><marker id="SvgjsMarker1112" markerWidth="16" markerHeight="12" refX="16" refY="6" viewBox="0 0 16 12" orient="auto" markerUnits="userSpaceOnUse" stroke-dasharray="0,0"><path id="SvgjsPath1113" d="M0,2 L14,6 L0,11 L0,2" fill="#323232" stroke="#323232" stroke-width="2"></path></marker><marker id="SvgjsMarker1116" markerWidth="16" markerHeight="12" refX="16" refY="6" viewBox="0 0 16 12" orient="auto" markerUnits="userSpaceOnUse" stroke-dasharray="0,0"><path id="SvgjsPath1117" d="M0,2 L14,6 L0,11 L0,2" fill="#323232" stroke="#323232" stroke-width="2"></path></marker><marker id="SvgjsMarker1120" markerWidth="16" markerHeight="12" refX="16" refY="6" viewBox="0 0 16 12" orient="auto" markerUnits="userSpaceOnUse" stroke-dasharray="0,0"><path id="SvgjsPath1121" d="M0,2 L14,6 L0,11 L0,2" fill="#323232" stroke="#323232" stroke-width="2"></path></marker></defs><g id="SvgjsG1066" transform="translate(188,25)"><path id="SvgjsPath1067" d="M 16.666666666666668 0L 83.33333333333333 0C 105.55555555555556 0 105.55555555555556 50 83.33333333333333 50L 16.666666666666668 50C -5.555555555555556 50 -5.555555555555556 0 16.666666666666668 0Z" stroke="rgba(50,50,50,1)" stroke-width="2" fill-opacity="1" fill="#ffffff"></path><g id="SvgjsG1068"><text id="SvgjsText1069" font-family="微软雅黑" text-anchor="middle" font-size="16px" width="80px" fill="#323232" font-weight="400" align="middle" lineHeight="125%" anchor="middle" family="微软雅黑" size="16px" weight="400" font-style="" opacity="1" y="13" transform="rotate(0)"><tspan id="SvgjsTspan1070" dy="20" x="50"><tspan id="SvgjsTspan1071" style="text-decoration:;">开始</tspan></tspan></text></g></g><g id="SvgjsG1072" transform="translate(128,108)"><path id="SvgjsPath1073" d="M 16.666666666666668 0L 220 0L 203.33333333333334 50L 0 50L 16.666666666666668 0Z" stroke="rgba(50,50,50,1)" stroke-width="2" fill-opacity="1" fill="#ffffff"></path><g id="SvgjsG1074"><text id="SvgjsText1075" font-family="微软雅黑" text-anchor="middle" font-size="16px" width="154px" fill="#323232" font-weight="400" align="middle" lineHeight="125%" anchor="middle" family="微软雅黑" size="16px" weight="400" font-style="" opacity="1" y="13" transform="rotate(0)"><tspan id="SvgjsTspan1076" dy="20" x="110"><tspan id="SvgjsTspan1077" style="text-decoration:;">随机生成 i∈[1, 10]</tspan></tspan></text></g></g><g id="SvgjsG1078" transform="translate(25,190)"><path id="SvgjsPath1079" d="M 16.666666666666668 0L 426 0L 409.3333333333333 50L 0 50L 16.666666666666668 0Z" stroke="rgba(50,50,50,1)" stroke-width="2" fill-opacity="1" fill="#ffffff"></path><g id="SvgjsG1080"><text id="SvgjsText1081" font-family="微软雅黑" text-anchor="middle" font-size="16px" width="299px" fill="#323232" font-weight="400" align="middle" lineHeight="125%" anchor="middle" family="微软雅黑" size="16px" weight="400" font-style="" opacity="1" y="13" transform="rotate(0)"><tspan id="SvgjsTspan1082" dy="20" x="213.4"><tspan id="SvgjsTspan1083" style="text-decoration:;">生成 i 个密码学安全的随机数 (32 比特）</tspan></tspan></text></g></g><g id="SvgjsG1084" transform="translate(95,265)"><path id="SvgjsPath1085" d="M 0 0L 286 0L 286 50L 0 50Z" stroke="rgba(50,50,50,1)" stroke-width="2" fill-opacity="1" fill="#ffffff"></path><g id="SvgjsG1086"><text id="SvgjsText1087" font-family="微软雅黑" text-anchor="middle" font-size="16px" width="266px" fill="#323232" font-weight="400" align="middle" lineHeight="125%" anchor="middle" family="微软雅黑" size="16px" weight="400" font-style="" opacity="1" y="13" transform="rotate(0)"><tspan id="SvgjsTspan1088" dy="20" x="143"><tspan id="SvgjsTspan1089" style="text-decoration:;">将 i 个随机数转为二进制形式</tspan></tspan></text></g></g><g id="SvgjsG1090" transform="translate(90.5,349)"><path id="SvgjsPath1091" d="M 16.666666666666668 0L 295 0L 278.3333333333333 50L 0 50L 16.666666666666668 0Z" stroke="rgba(50,50,50,1)" stroke-width="2" fill-opacity="1" fill="#ffffff"></path><g id="SvgjsG1092"><text id="SvgjsText1093" font-family="微软雅黑" text-anchor="middle" font-size="16px" width="207px" fill="#323232" font-weight="400" align="middle" lineHeight="125%" anchor="middle" family="微软雅黑" size="16px" weight="400" font-style="" opacity="1" y="13" transform="rotate(0)"><tspan id="SvgjsTspan1094" dy="20" x="147.75"><tspan id="SvgjsTspan1095" style="text-decoration:;">拼接，得到随机的 01 字符串</tspan></tspan></text></g></g><g id="SvgjsG1096" transform="translate(188,430)"><path id="SvgjsPath1097" d="M 16.666666666666668 0L 83.33333333333333 0C 105.55555555555556 0 105.55555555555556 50 83.33333333333333 50L 16.666666666666668 50C -5.555555555555556 50 -5.555555555555556 0 16.666666666666668 0Z" stroke="rgba(50,50,50,1)" stroke-width="2" fill-opacity="1" fill="#ffffff"></path><g id="SvgjsG1098"><text id="SvgjsText1099" font-family="微软雅黑" text-anchor="middle" font-size="16px" width="80px" fill="#323232" font-weight="400" align="middle" lineHeight="125%" anchor="middle" family="微软雅黑" size="16px" weight="400" font-style="" opacity="1" y="13" transform="rotate(0)"><tspan id="SvgjsTspan1100" dy="20" x="50"><tspan id="SvgjsTspan1101" style="text-decoration:;">结束</tspan></tspan></text></g></g><g id="SvgjsG1102"><path id="SvgjsPath1103" d="M238 75L238 91.5L238 91.5L238 108" stroke="#323232" stroke-width="2" fill="none" marker-end="url(#SvgjsMarker1104)"></path></g><g id="SvgjsG1106"><path id="SvgjsPath1107" d="M238 158L238 173L238 173L238 190" stroke="#323232" stroke-width="2" fill="none" marker-end="url(#SvgjsMarker1108)"></path></g><g id="SvgjsG1110"><path id="SvgjsPath1111" d="M238 240L238 250L238 250L238 265" stroke="#323232" stroke-width="2" fill="none" marker-end="url(#SvgjsMarker1112)"></path></g><g id="SvgjsG1114"><path id="SvgjsPath1115" d="M238 315L238 331.5L238 331.5L238 349" stroke="#323232" stroke-width="2" fill="none" marker-end="url(#SvgjsMarker1116)"></path></g><g id="SvgjsG1118"><path id="SvgjsPath1119" d="M238 399L238 415L238 415L238 430" stroke="#323232" stroke-width="2" fill="none" marker-end="url(#SvgjsMarker1120)"></path></g></svg>